/* XPM */
static char *dummy[]={
"32 32 103 2",
"Qt c #000000",
".k c #3398c3",
".p c #3498c3",
"#F c #3599c3",
".2 c #3699c4",
"#u c #369ac4",
".Y c #389ac4",
"#B c #399bc5",
".N c #3a9bc5",
".u c #3b9cc5",
".H c #3c9dc5",
".d c #3d9dc6",
".R c #3e9dc6",
"#A c #3f9ec6",
"#t c #409ec7",
".M c #45a1c8",
".7 c #46a1c8",
"#p c #4aa4ca",
"#G c #4ba4ca",
"#a c #4ca4ca",
".9 c #51a7cc",
".K c #57aacd",
".B c #58aace",
".j c #59abce",
".C c #5bacce",
".x c #5caccf",
".c c #5eaecf",
".e c #5eaed0",
".D c #5faed0",
".T c #64b0d1",
"#j c #68b2d2",
"#x c #6cb5d4",
".F c #73b8d6",
".n c #75b9d6",
".S c #78bbd7",
".8 c #79bbd7",
".w c #81bfda",
".y c #85c1db",
"#. c #86c2db",
".r c #89c3dc",
".X c #8dc5dd",
"#y c #92c8df",
"#z c #93c8df",
".o c #94c9df",
"#g c #96cae0",
"#f c #97cae0",
"#J c #98cbe1",
".W c #9ccde1",
".1 c #9dcde2",
".J c #a1cfe3",
".Z c #a2d0e3",
".6 c #a3d0e4",
"#s c #a3d1e4",
".f c #a4d1e4",
".s c #a5d1e4",
"#H c #a6d2e4",
".t c #a7d2e5",
".b c #a8d3e5",
".5 c #add5e7",
"#b c #add6e7",
".v c #aed6e7",
".A c #afd6e7",
"#e c #b0d7e7",
"## c #b6dae9",
".h c #b9dbea",
".V c #b9dcea",
".z c #bbdceb",
"#c c #bedeeb",
"#C c #bfdeec",
".4 c #c0dfec",
"#v c #c2e0ed",
"#h c #c6e2ee",
"#m c #cee6f0",
"#K c #d3e9f2",
"#D c #d7ebf3",
"#q c #daecf4",
".G c #dbedf4",
"#o c #e0eff6",
".Q c #e3f1f7",
"#d c #e4f1f7",
".i c #e8f3f8",
"#n c #e8f4f8",
".l c #e9f4f8",
".L c #ebf4f9",
".0 c #ebf5f9",
"#E c #ecf5f9",
"#w c #eef6fa",
"#I c #eff7fa",
"#i c #f0f7fa",
".E c #f1f8fb",
".U c #f2f8fb",
"#l c #f3f9fb",
".P c #f4f9fc",
".3 c #f5fafc",
".I c #f6fafc",
"#r c #f7fbfc",
".g c #f8fbfd",
".a c #f9fcfd",
".O c #fafcfd",
"#k c #fcfdfe",
".m c #fdfefe",
".q c #fefefe",
".# c #ffffff",
"QtQtQtQtQtQtQtQtQtQtQtQtQtQtQtQtQtQtQtQtQtQtQtQtQtQtQtQtQtQtQtQt",
"Qt.#.#.#.#.#.#.#.#.#.#.#.#.#.#.#.#.#.#.#.#.#.#.#.#.#.#.#.#.#.#Qt",
"Qt.#.#.#.#.#.#.#.#.#.#.#.#.#.#.#.#.#.#.#.#.#.#.#.#.#.#.#.#.#.#Qt",
"Qt.#.#.#.#.#.#.#.#.#.#.#.#.#.#.#.#.#.#.#.#.#.#.#.#.#.#.#.#.#.#Qt",
"Qt.#.#.#.#.#.#.#.#.#.#.#.#.#.#.#.#.#.#.#.#.#.#.#.#.#.#.#.#.#.#Qt",
"Qt.#.#.#.#.#.#.#.#.#.#.#.#.#.#.#.#.#.#.#.#.#.#.#.#.#.#.#.#.#.#Qt",
"Qt.#.#.#.#.#.#.#.#.#.#.#.#.#.#.#.#.#.#.#.#.#.#.#.#.#.#.#.#.#.#Qt",
"Qt.#.#.#.#.#.#.#.#.a.b.c.d.d.e.f.g.#.#.#.#.#.#.#.#.g.h.#.#.#.#Qt",
"Qt.#.#.#.#.#.#.#.i.j.k.k.k.k.k.k.j.l.#.#.#.#.#.#.m.n.o.#.#.#.#Qt",
"Qt.#.#.#.#.#.#.a.j.k.k.k.p.p.k.k.k.j.a.#.#.#.#.q.r.k.s.#.#.#.#Qt",
"Qt.#.#.#.#.#.#.t.k.k.u.v.w.u.x.p.k.k.b.#.#.#.m.y.k.k.z.#.#.#.#Qt",
"Qt.#.#.#.#.#.#.c.k.k.A.h.k.B.#.C.k.k.D.#.#.E.F.k.k.k.G.#.#.#.#Qt",
"Qt.#.#.#.#.#.#.H.k.k.I.J.k.k.K.u.k.k.d.L.f.M.k.k.k.N.O.#.#.#.#Qt",
"Qt.#.#.#.#.#.#.d.k.k.P.Q.R.k.k.S.k.k.k.k.k.k.k.k.k.T.#.#.#.#.#Qt",
"Qt.#.#.#.#.#.U.u.k.k.t.#.Q.J.V.W.k.k.k.k.k.k.k.k.k.W.#.#.#.#.#Qt",
"Qt.#.#.#.#.#.X.k.k.k.Y.Z.0.l.1.2.k.k.k.k.k.k.k.k.k.G.#.#.#.#.#Qt",
"Qt.#.#.#.#.3.N.k.k.k.k.k.k.k.k.k.k.k.k.k.k.k.k.k.j.#.#.#.#.#.#Qt",
"Qt.#.#.#.#.4.k.k.k.k.k.k.k.k.k.k.k.k.k.k.k.k.k.k.5.#.#.#.#.#.#Qt",
"Qt.#.#.#.#.6.k.k.k.k.k.k.k.k.k.k.k.k.k.k.k.k.k.7.g.#.#.#.#.#.#Qt",
"Qt.#.#.#.#.Z.k.k.8.n.p.k.k.k.k.k.k.9#.###a.k.k#b.#.#.#.#.#.#.#Qt",
"Qt.#.#.#.##c.k.k.D.##d#e#f#g.b#h#i.#.I#j.k.k.D#k.#.#.#.#.#.#.#Qt",
"Qt.#.#.#.##l.Y.k.k#m.#.#.#.#.#.#.##n.D.k.k.R#o.#.#.#.#.#.#.#.#Qt",
"Qt.#.#.#.#.##..k.k#p#q.#.#.#.##r#s#t.k.k#u#v.#.#.#.#.#.#.#.#.#Qt",
"Qt.#.#.#.#.##w#p.k.k.2#x#y#z.F#A.k.k.k#B#C.#.#.#.#.#.#.#.#.#.#Qt",
"Qt.#.#.#.#.#.#.G#p.k.k.k.k.k.k.k.k.k.9#D.#.#.#.#.#.#.#.#.#.#.#Qt",
"Qt.#.#.#.#.#.#.##E.w#F.k.k.k.k.k#G#H.O.#.#.#.#.#.#.#.#.#.#.#.#Qt",
"Qt.#.#.#.#.#.#.#.#.##I###J#f.J#K.q.#.#.#.#.#.#.#.#.#.#.#.#.#.#Qt",
"Qt.#.#.#.#.#.#.#.#.#.#.#.#.#.#.#.#.#.#.#.#.#.#.#.#.#.#.#.#.#.#Qt",
"Qt.#.#.#.#.#.#.#.#.#.#.#.#.#.#.#.#.#.#.#.#.#.#.#.#.#.#.#.#.#.#Qt",
"Qt.#.#.#.#.#.#.#.#.#.#.#.#.#.#.#.#.#.#.#.#.#.#.#.#.#.#.#.#.#.#Qt",
"Qt.#.#.#.#.#.#.#.#.#.#.#.#.#.#.#.#.#.#.#.#.#.#.#.#.#.#.#.#.#.#Qt",
"QtQtQtQtQtQtQtQtQtQtQtQtQtQtQtQtQtQtQtQtQtQtQtQtQtQtQtQtQtQtQtQt"};
